<svg xmlns="http://www.w3.org/2000/svg" viewBox="0 0 512 512" fill="none">
  <rect width="512" height="512" rx="112" fill="#6d4aff"/>
  <path d="M128 176c0-26.5 21.5-48 48-48h160c26.5 0 48 21.5 48 48v24l-128 80-128-80v-24z" fill="#fff"/>
  <path d="M128 224l128 80 128-80v136c0 26.5-21.5 48-48 48H176c-26.5 0-48-21.5-48-48V224z" fill="#fff" fill-opacity=".92"/>
  <path d="M176 128l80 48 80-48" stroke="#6d4aff" stroke-width="16" stroke-linecap="round"/>
  <rect x="312" y="296" width="88" height="72" rx="14" fill="#fff"/>
  <path d="M356 328v24" stroke="#6d4aff" stroke-width="12" stroke-linecap="round"/>
  <path d="M332 352h48" stroke="#6d4aff" stroke-width="12" stroke-linecap="round"/>
  <rect x="340" y="312" width="32" height="28" rx="8" stroke="#6d4aff" stroke-width="10"/>
</svg>
